<svg width="30" height="29" viewBox="0 0 30 29" fill="none" xmlns="http://www.w3.org/2000/svg">
<path d="M15.0176 0C6.75858 0 0.0352266 6.44679 0.0322266 14.3729C0.0307266 16.9065 0.722203 19.3799 2.0332 21.5593L0 28.7908L7.84863 27.011C10.0371 28.1569 12.5008 28.7584 15.0088 28.7598H15.0146C23.2721 28.7598 29.9926 22.3116 29.9971 14.3869C30.0001 10.5448 28.4433 6.93243 25.6143 4.21458C22.7853 1.49818 19.0256 0.00143954 15.0176 0ZM15.0146 2.87908C18.2186 2.88051 21.2297 4.07936 23.4932 6.25018C25.7567 8.42388 27.0001 11.3122 26.9971 14.3841C26.9941 20.7239 21.6207 25.8808 15.0117 25.8808C13.0122 25.8793 11.0316 25.3975 9.28711 24.4834L8.27637 23.9548L7.16016 24.2078L4.20703 24.877L4.92773 22.3072L5.25293 21.1545L4.63184 20.1198C3.58484 18.3808 3.03073 16.3926 3.03223 14.3729C3.03523 8.03604 8.41015 2.87908 15.0146 2.87908ZM9.71484 7.73751C9.46434 7.73751 9.05932 7.82749 8.71582 8.18737C8.37232 8.54582 7.40332 9.41397 7.40332 11.1817C7.40332 12.9495 8.74512 14.6582 8.93262 14.8987C9.11862 15.1376 11.5226 18.8799 15.3281 20.3194C18.4901 21.5157 19.1323 21.2796 19.8193 21.2191C20.5063 21.1601 22.0357 20.3517 22.3477 19.5125C22.6597 18.6732 22.6604 17.9513 22.5674 17.803C22.4744 17.6533 22.2246 17.564 21.8496 17.3841C21.4761 17.2042 19.6355 16.3368 19.292 16.2173C18.9485 16.0978 18.6972 16.0373 18.4482 16.3972C18.1992 16.7571 17.4836 17.5641 17.2646 17.803C17.0456 18.0434 16.8281 18.0758 16.4531 17.8958C16.0781 17.7144 14.8724 17.3341 13.4414 16.1105C12.3284 15.1589 11.5774 13.9849 11.3584 13.625C11.1409 13.2666 11.3379 13.0697 11.5254 12.8912C11.6934 12.7299 11.8975 12.4715 12.085 12.2614C12.271 12.0512 12.3355 11.9015 12.46 11.6625C12.5845 11.4235 12.5207 11.2126 12.4277 11.0327C12.3347 10.8528 11.6064 9.07844 11.2734 8.36731C10.9929 7.7699 10.6967 7.75603 10.4297 7.74595C10.2122 7.73731 9.96384 7.73751 9.71484 7.73751Z" fill="black"/>
</svg>
